<mxfile host="app.diagrams.net" modified="2023-06-20T10:41:47.449Z" agent="Mozilla/5.0 (Windows NT 10.0; Win64; x64) AppleWebKit/537.36 (KHTML, like Gecko) Chrome/113.0.0.0 Safari/537.36" version="21.3.5" etag="a0j_mpCfrULF-GF1QOTh" type="github">
  <diagram name="Page-1" id="Z8owpzGAuGShLWBpqUOi">
    <mxGraphModel>
      <root>
        <mxCell id="0" />
        <mxCell id="1" parent="0" />
      </root>
    </mxGraphModel>
  </diagram>
</mxfile>
